# xmcd
#
# Track frame offsets:
#	150
#	16997
#	39019
#	53747
#	70028
#	83232
#	115611
#	127372
#	161428
#	174753
#	194047
#	214608
#	229394
#
# Disc length: 3207
#
# Revision: 2
# Processed by: cddbd v1.5.1PL0 Copyright (c) Steve Scherf et al.
# Submitted via: audiograbber 1.82.01
# Normalized: r1:DSETVAR2,TDELIM( - )
#
DISCID=a70c850d
DTITLE=Various Artist - Black Box  CD 1
DYEAR=2003
DGENRE=Black 
TTITLE0=The Three Degrees - Dirty Old Man
TTITLE1=Pointer Sisters - Moonlight Dancing
TTITLE2=Al Green - Let's Stay Together
TTITLE3=Nina Simone - My Baby Just Cares For me
TTITLE4=Joe Tex - Show Me
TTITLE5=The Temptations - Papa Was A Rolling Stone
TTITLE6=Maxine Brown - Oh,No,Not My Baby
TTITLE7=Solomon Burke - A Change Is Gonna Come
TTITLE8=Percy Sledge - When A  Man Loves A Woman
TTITLE9=Londonbeat - 9 Am
TTITLE10=La Toya Jackson - You And Me
TTITLE11=George McCrae - Rock Your Baby
TTITLE12=James Brown - I Feel Good
EXTD=
EXTT0=
EXTT1=
EXTT2=
EXTT3=
EXTT4=
EXTT5=
EXTT6=
EXTT7=
EXTT8=
EXTT9=
EXTT10=
EXTT11=
EXTT12=
PLAYORDER=
